<?xml version="1.0" standalone="no"?>
<!DOCTYPE svg PUBLIC "-//W3C//DTD SVG 20010904//EN"
 "http://www.w3.org/TR/2001/REC-SVG-20010904/DTD/svg10.dtd">
<svg version="1.0" xmlns="http://www.w3.org/2000/svg"
 width="4790.000000pt" height="1340.000000pt" viewBox="0 0 4790.000000 1340.000000"
 preserveAspectRatio="xMidYMid meet">

<g transform="translate(0.000000,1340.000000) scale(0.100000,-0.100000)"
fill="#000000" stroke="none">
<path d="M13390 6560 l0 -5380 65 0 65 0 0 5380 0 5380 -65 0 -65 0 0 -5380z"/>
<path d="M8365 8890 c-1116 -1117 -2033 -2029 -2037 -2028 -4 2 -151 146 -327
322 l-320 318 1005 1011 c982 989 1145 1146 1349 1306 251 197 435 310 635
390 l125 50 0 83 0 83 -877 3 -878 2 0 -59 c0 -64 -2 -62 70 -77 113 -22 213
-103 250 -202 39 -102 12 -235 -79 -394 -83 -144 -376 -463 -966 -1053 -612
-610 -1066 -1041 -1390 -1319 -77 -65 -141 -122 -143 -126 -1 -3 211 -218 471
-477 l474 -471 -494 -494 -494 -493 4 2170 c4 2345 3 2302 56 2475 59 190 202
301 499 386 8 2 12 25 12 69 l0 65 -1040 0 -1040 0 0 -59 0 -59 63 -11 c84
-15 176 -45 262 -86 173 -84 259 -192 297 -375 17 -81 24 -4915 7 -5125 -6
-82 -14 -195 -16 -250 l-4 -100 -1140 -1140 -1139 -1140 57 -58 58 -57 4420
4420 4420 4420 -55 55 c-30 30 -57 55 -60 55 -3 0 -919 -914 -2035 -2030z"/>
<path d="M7435 6400 l-4420 -4420 58 -57 57 -58 1440 1440 1440 1440 0 -550
c0 -690 -14 -896 -70 -1061 -66 -191 -248 -324 -505 -367 l-80 -13 0 -55 0
-54 1345 -3 c1605 -3 1789 3 2215 74 733 122 1382 430 1839 874 511 496 795
1107 893 1920 21 181 24 676 4 850 -75 666 -274 1185 -644 1680 -225 300 -578
603 -872 747 l-56 27 946 946 945 945 -57 58 -58 57 -4420 -4420z m2343 1773
c161 -161 256 -278 361 -445 249 -396 394 -830 458 -1365 21 -185 24 -697 4
-873 -64 -569 -223 -1033 -495 -1450 -216 -330 -524 -617 -869 -810 -57 -32
-58 -32 -53 -8 17 71 29 187 40 384 13 213 14 224 43 285 17 35 54 93 82 128
113 138 179 325 188 531 5 96 2 129 -15 197 -42 167 -113 268 -230 325 -62 31
-73 33 -167 32 -126 -1 -178 -20 -388 -142 -236 -138 -276 -159 -359 -186 -91
-31 -190 -35 -246 -9 l-37 16 60 8 c74 9 155 39 220 80 l50 32 -115 54 c-191
90 -292 131 -358 144 -209 40 -386 -82 -459 -316 -27 -89 -24 -329 6 -440 29
-110 86 -225 160 -322 106 -140 130 -221 131 -434 0 -188 31 -399 85 -589 13
-46 22 -86 19 -89 -7 -7 -312 19 -459 39 -141 20 -352 58 -477 86 l-68 16 0
1286 0 1287 1352 1352 c744 744 1359 1353 1366 1353 7 0 84 -71 170 -157z
m-1248 -4515 c56 -24 90 -56 142 -132 73 -107 134 -276 153 -422 l7 -52 -64
-20 c-141 -47 -370 -93 -522 -107 l-79 -8 7 89 c16 203 83 402 188 557 22 32
37 61 34 64 -11 11 -137 -20 -196 -48 -52 -24 -59 -26 -47 -9 48 69 189 125
287 113 25 -3 65 -14 90 -25z"/>
<path d="M40247 7918 c-277 -659 -1148 -2682 -1197 -2783 -39 -77 -93 -171
-122 -210 -62 -81 -113 -112 -238 -140 l-80 -18 0 -49 0 -48 508 2 507 3 0 45
0 45 -90 12 c-132 19 -194 41 -237 84 -36 35 -38 39 -38 104 0 87 27 167 173
505 l114 265 618 0 618 0 79 -185 c130 -308 167 -404 189 -490 28 -111 21
-162 -30 -210 -41 -39 -88 -57 -201 -74 l-75 -12 0 -44 0 -45 633 -3 632 -2 0
49 0 48 -62 7 c-185 19 -287 101 -396 319 -28 56 -301 700 -606 1430 -306 730
-565 1350 -577 1377 -21 49 -22 50 -65 50 -40 0 -45 -3 -57 -32z m203 -1370
l257 -613 -268 -3 c-148 -1 -390 -1 -538 0 l-270 3 272 632 c211 489 274 627
281 613 5 -10 124 -295 266 -632z"/>
<path d="M14897 7873 c-4 -3 -7 -26 -7 -50 l0 -43 80 0 c99 0 170 -15 240 -50
67 -34 94 -62 117 -120 17 -42 18 -121 21 -1255 3 -1228 0 -1352 -34 -1433
-41 -100 -126 -143 -299 -151 l-120 -6 0 -45 0 -45 685 0 685 0 0 45 0 45
-113 6 c-103 5 -118 9 -187 43 -83 41 -118 78 -136 146 -9 32 -13 226 -16 674
l-4 630 533 -526 c737 -727 723 -712 728 -788 5 -63 0 -79 -31 -115 -35 -39
-105 -65 -176 -65 l-43 0 0 -50 0 -50 763 2 762 3 0 45 0 44 -75 13 c-186 31
-358 107 -524 232 -117 88 -459 417 -1051 1010 l-430 431 525 523 c524 523
620 609 778 701 87 52 177 83 277 98 l86 12 -3 46 -3 45 -587 3 -588 2 0 -49
0 -48 88 -5 c103 -6 156 -27 179 -71 44 -85 0 -181 -165 -362 -223 -244 -920
-921 -1021 -991 l-21 -15 0 528 c1 536 8 694 34 758 41 96 172 155 347 155
l80 0 -3 48 -3 47 -681 3 c-374 1 -684 -1 -687 -5z"/>
<path d="M20388 7874 c-5 -4 -8 -26 -8 -49 l0 -43 118 -5 c141 -6 198 -24 257
-81 32 -30 48 -57 62 -101 17 -57 18 -124 18 -1320 0 -1179 -1 -1264 -18
-1317 -22 -73 -63 -120 -134 -154 -48 -24 -72 -28 -177 -33 l-121 -6 0 -45 0
-45 830 0 c869 0 899 1 1120 46 492 100 892 380 1093 768 181 348 232 826 133
1242 -98 415 -379 783 -729 958 -152 76 -389 136 -667 167 -124 14 -290 17
-960 21 -445 3 -813 1 -817 -3z m1673 -214 c441 -90 758 -374 913 -818 67
-194 81 -293 81 -582 -1 -224 -4 -267 -23 -356 -110 -509 -407 -862 -841 -998
-147 -47 -247 -59 -436 -53 -148 4 -353 30 -428 53 -16 5 -17 76 -15 1362 l3
1357 115 22 c63 12 151 26 195 32 112 14 320 5 436 -19z"/>
<path d="M25337 7873 c-4 -3 -7 -25 -7 -48 l0 -42 123 -5 c182 -8 262 -45 301
-140 34 -80 37 -215 33 -1438 -2 -947 -6 -1214 -16 -1246 -19 -62 -64 -109
-137 -145 -59 -29 -77 -33 -182 -38 l-117 -6 0 -45 0 -45 1235 0 1234 0 133
385 c73 212 136 393 139 403 5 16 0 18 -47 15 l-53 -3 -56 -100 c-131 -235
-267 -388 -404 -455 -112 -55 -190 -61 -698 -58 -434 3 -454 4 -488 23 -19 12
-44 38 -55 60 -19 39 -20 63 -23 678 l-3 639 428 -5 c455 -4 485 -7 586 -56
95 -46 134 -120 167 -315 l17 -101 46 -3 47 -3 0 560 0 561 -45 0 c-50 0 -49
2 -60 -108 -14 -145 -70 -249 -159 -294 -97 -50 -114 -51 -583 -55 l-443 -4 0
625 0 626 523 0 c652 -1 688 -6 803 -112 67 -62 103 -148 158 -380 5 -23 12
-28 36 -28 l30 0 0 355 0 355 -1228 0 c-676 0 -1232 -3 -1235 -7z"/>
<path d="M29570 7830 l0 -50 43 0 c126 0 308 -62 396 -134 29 -24 82 -76 117
-116 l64 -73 0 -1202 c0 -815 -3 -1220 -11 -1261 -19 -104 -69 -166 -162 -201
-24 -9 -91 -18 -157 -22 l-115 -6 0 -45 0 -45 558 -3 557 -2 0 50 0 50 -93 0
c-152 0 -267 43 -304 114 -47 90 -47 75 -50 1221 -4 1060 -3 1080 15 1060 11
-11 484 -588 1052 -1282 l1032 -1263 44 0 43 0 4 1448 c3 1275 5 1454 19 1505
24 89 57 130 133 168 60 29 75 32 186 37 l120 5 -3 46 -3 46 -560 0 -560 0 -3
-46 -3 -46 118 -6 c212 -9 288 -60 324 -218 9 -40 13 -312 16 -1064 3 -963 2
-1009 -14 -990 -10 12 -450 550 -978 1198 l-959 1177 -433 0 -433 0 0 -50z"/>
<path d="M34710 7500 l0 -380 48 0 48 0 18 93 c34 178 101 305 193 367 102 67
252 90 596 90 l197 0 0 -1297 c0 -851 -4 -1320 -11 -1363 -14 -89 -43 -145
-92 -179 -64 -43 -103 -53 -227 -60 l-115 -6 0 -45 0 -45 680 0 680 0 0 45 0
45 -120 6 c-135 6 -195 26 -253 82 -71 68 -67 -19 -70 1475 l-2 1342 227 0
c355 0 475 -21 586 -100 94 -68 159 -190 193 -365 17 -83 18 -85 46 -85 l28 0
0 380 0 380 -1325 0 -1325 0 0 -380z"/>
<path d="M43607 7873 c-4 -3 -7 -26 -7 -50 l0 -43 93 0 c109 0 194 -20 250
-58 53 -36 73 -65 94 -137 16 -55 18 -150 21 -1250 3 -1251 1 -1340 -40 -1424
-22 -46 -83 -96 -146 -120 -20 -7 -89 -16 -152 -20 l-115 -6 0 -45 0 -45 1240
0 1239 0 137 430 c75 237 132 434 128 439 -4 5 -24 9 -44 10 -36 1 -36 1 -76
-89 -70 -153 -157 -292 -239 -376 -61 -63 -92 -85 -160 -118 -47 -22 -118 -47
-159 -56 -149 -31 -578 -44 -871 -26 -211 13 -248 42 -270 213 -13 100 -13
2200 0 2346 11 127 26 172 73 220 64 67 161 98 345 108 l113 7 -3 46 -3 46
-721 3 c-396 1 -724 -1 -727 -5z"/>
</g>
</svg>
